<svg width="512" height="512" viewBox="0 0 512 512" xmlns="http://www.w3.org/2000/svg">
  <defs>
    <linearGradient id="bgGrad" x1="0%" y1="0%" x2="100%" y2="100%">
      <stop offset="0%" style="stop-color:#0f1117"/>
      <stop offset="100%" style="stop-color:#1a2035"/>
    </linearGradient>
    <linearGradient id="goldGrad" x1="0%" y1="0%" x2="100%" y2="100%">
      <stop offset="0%" style="stop-color:#f5c842"/>
      <stop offset="50%" style="stop-color:#f09830"/>
      <stop offset="100%" style="stop-color:#e07820"/>
    </linearGradient>
    <linearGradient id="greenGrad" x1="0%" y1="0%" x2="100%" y2="100%">
      <stop offset="0%" style="stop-color:#3d6b35"/>
      <stop offset="100%" style="stop-color:#538d4e"/>
    </linearGradient>
    <linearGradient id="yellowGrad" x1="0%" y1="0%" x2="100%" y2="100%">
      <stop offset="0%" style="stop-color:#8a7520"/>
      <stop offset="100%" style="stop-color:#b59f3b"/>
    </linearGradient>
  </defs>
  <rect width="512" height="512" rx="100" fill="url(#bgGrad)"/>
  <rect x="290" y="80" width="64" height="64" rx="10" fill="url(#greenGrad)" opacity="0.9"/>
  <rect x="364" y="80" width="64" height="64" rx="10" fill="#1f2937" stroke="#2d3748" stroke-width="1.5"/>
  <rect x="438" y="80" width="64" height="64" rx="10" fill="url(#yellowGrad)" opacity="0.9"/>
  <rect x="290" y="154" width="64" height="64" rx="10" fill="#1f2937" stroke="#2d3748" stroke-width="1.5"/>
  <rect x="364" y="154" width="64" height="64" rx="10" fill="url(#greenGrad)" opacity="0.9"/>
  <rect x="438" y="154" width="64" height="64" rx="10" fill="url(#greenGrad)" opacity="0.9"/>
  <rect x="290" y="228" width="64" height="64" rx="10" fill="url(#yellowGrad)" opacity="0.9"/>
  <rect x="364" y="228" width="64" height="64" rx="10" fill="#1f2937" stroke="#2d3748" stroke-width="1.5"/>
  <rect x="438" y="228" width="64" height="64" rx="10" fill="url(#greenGrad)" opacity="0.9"/>
  <text x="68" y="360" font-family="Georgia, serif" font-size="320" font-weight="900" fill="url(#goldGrad)">W</text>
  <text x="256" y="468" text-anchor="middle" font-family="'Courier New', monospace" font-size="36" font-weight="700" fill="#f5c842" opacity="0.5" letter-spacing="18">QUEST</text>
  <rect width="512" height="512" rx="100" fill="none" stroke="url(#goldGrad)" stroke-opacity="0.12" stroke-width="3"/>
</svg>